<svg xmlns="http://www.w3.org/2000/svg" xmlns:xlink="http://www.w3.org/1999/xlink" version="1.1" width="256" height="256" viewBox="0 0 256 256" xml:space="preserve">

<defs>
</defs>
<g style="stroke: none; stroke-width: 0; stroke-dasharray: none; stroke-linecap: butt; stroke-linejoin: miter; stroke-miterlimit: 10; fill: none; fill-rule: nonzero; opacity: 1;" transform="translate(1.4065934065934016 1.4065934065934016) scale(2.81 2.81)" >
	<path d="M 49.336 48.741 c -1.559 0 -3.028 0.374 -4.336 1.024 V 14.329 c -0.849 0 -1.699 -0.324 -2.347 -0.972 C 38.059 8.763 31.93 5.879 25.436 5.702 c -7.987 -0.217 -15.459 3.32 -20.419 9.783 c -2.59 3.375 -4.256 7.41 -4.801 11.629 c -1.012 7.823 1.583 15.366 7.032 20.814 l 35.406 35.407 c 0.648 0.648 1.497 0.972 2.347 0.972 V 67.268 c 1.308 0.649 2.777 1.024 4.336 1.024 c 5.399 0 9.775 -4.376 9.775 -9.775 C 59.111 53.118 54.735 48.741 49.336 48.741 z" style="stroke: none; stroke-width: 1; stroke-dasharray: none; stroke-linecap: butt; stroke-linejoin: miter; stroke-miterlimit: 10; fill: rgb(240,59,97); fill-rule: nonzero; opacity: 1;" transform=" matrix(1 0 0 1 0 0) " stroke-linecap="round" />
	<path d="M 89.785 27.114 c -0.546 -4.219 -2.211 -8.254 -4.801 -11.629 c -4.96 -6.463 -12.431 -10 -20.419 -9.783 c -6.495 0.176 -12.624 3.061 -17.218 7.655 c -0.648 0.648 -1.497 0.972 -2.347 0.972 v 9.881 c -1.213 -0.67 -2.607 -1.053 -4.091 -1.053 c -4.685 0 -8.483 3.798 -8.483 8.483 c 0 4.685 3.798 8.483 8.483 8.483 c 1.484 0 2.877 -0.383 4.091 -1.053 v 11.731 c 1.213 -0.67 2.607 -1.053 4.091 -1.053 c 4.685 0 8.483 3.798 8.483 8.483 c 0 4.685 -3.798 8.483 -8.483 8.483 c -1.484 0 -2.877 -0.383 -4.091 -1.053 v 18.646 c 0.849 0 1.699 -0.324 2.347 -0.972 l 35.406 -35.407 C 88.202 42.48 90.797 34.937 89.785 27.114 z" style="stroke: none; stroke-width: 1; stroke-dasharray: none; stroke-linecap: butt; stroke-linejoin: miter; stroke-miterlimit: 10; fill: rgb(254,85,120); fill-rule: nonzero; opacity: 1;" transform=" matrix(1 0 0 1 0 0) " stroke-linecap="round" />
</g>
</svg>